# xmcd
#
# Track frame offsets: 
#        150
#        12030
#        22710
#        35055
#        50222
#        63337
#        73282
#        85495
#        95492
#        106582
#        118857
#        129297
#        142870
#        152057
#        164837
#        176017
#        183685
#        193252
#        203200
#        212135
#        222770
#        235032
#        247180
#        265060
#
# Disc length: 3723 seconds
#
# Revision: 2
# Processed by: cddbd v1.5.2PL0 Copyright (c) Steve Scherf et al.
# Submitted via: ExactAudioCopy v1.0b2
#
DISCID=640e8918
DTITLE=The Ikettes - Fine Fine Fine
DYEAR=1900
DGENRE=Blues
TTITLE0=Fine, Fine, Fine
TTITLE1=Can't Sit Down 'Cos I Feel So Good
TTITLE2=Don't Feel Sorry For Me
TTITLE3=Through With You
TTITLE4=I'm So Thankful
TTITLE5=Cheater
TTITLE6=Camel Walk
TTITLE7=You're Trying To Make Me Lose My Mind
TTITLE8=Sally Go 'Round The Roses
TTITLE9=Blue On Blue
TTITLE10=Peaches 'N' Cream
TTITLE11=I'm Leaving You
TTITLE12=Never More Will I Be Lonely For You
TTITLE13=You're Still My Baby
TTITLE14=Give Me A Chance (Try Me)
TTITLE15=The Biggest Players
TTITLE16=Not That I Recall
TTITLE17=Living For You
TTITLE18=How Come
TTITLE19=Your Love Is Mine
TTITLE20=Nobody Loves Me
TTITLE21=It's Been So Long
TTITLE22=The Love Of My Man (Live)
TTITLE23=I Love The Way You Love (Live)
EXTD=
EXTT0=
EXTT1=
EXTT2=
EXTT3=Featuring Venetta Fields
EXTT4=
EXTT5=
EXTT6=
EXTT7=
EXTT8=
EXTT9=
EXTT10=
EXTT11=featuring Venetta Fields
EXTT12=
EXTT13=featuring Venetta Fields
EXTT14=featuring Venetta Fields
EXTT15=
EXTT16=
EXTT17=featuring Dee Dee Johnson
EXTT18=
EXTT19=
EXTT20=
EXTT21=
EXTT22=featuring Venetta Fields
EXTT23=featuring Robbie Montgomery
PLAYORDER=
